<svg width="10" height="14" viewBox="0 0 10 14" fill="none" xmlns="http://www.w3.org/2000/svg">
<path d="M9.1448 2.39792C8.29515 0.931639 6.78599 0.0358301 5.10777 0.0015957C5.03613 0.000119141 4.96402 0.000119141 4.89236 0.0015957C3.21416 0.0358301 1.705 0.931639 0.855324 2.39792C-0.0131683 3.89669 -0.03693 5.697 0.79175 7.21378L4.26339 13.5681C4.26495 13.5709 4.26651 13.5737 4.26813 13.5765C4.42087 13.842 4.6945 14.0005 5.00012 14.0005C5.30571 14.0005 5.57934 13.842 5.73205 13.5765C5.73367 13.5737 5.73523 13.5709 5.73678 13.5681L9.20843 7.21378C10.0371 5.697 10.0133 3.89669 9.1448 2.39792ZM5.00006 6.34425C3.91449 6.34425 3.03131 5.46108 3.03131 4.3755C3.03131 3.28993 3.91449 2.40675 5.00006 2.40675C6.08564 2.40675 6.96881 3.28993 6.96881 4.3755C6.96881 5.46108 6.08566 6.34425 5.00006 6.34425Z" fill="url(#paint0_linear_512_39)"/>
<defs>
<linearGradient id="paint0_linear_512_39" x1="0.186676" y1="0.000488281" x2="11.763" y2="12.1416" gradientUnits="userSpaceOnUse">
<stop stop-color="#A346EF"/>
<stop offset="1" stop-color="#6423FF"/>
</linearGradient>
</defs>
</svg>
