<svg width="24" height="24" viewBox="0 0 24 24" fill="none" xmlns="http://www.w3.org/2000/svg">
<path d="M12.9771 1.93865C13.2485 1.57888 13.2049 0.815778 13.1662 0.142624C13.1648 0.113608 13.1631 0.0852305 13.1615 0.0564112C12.781 0.0200802 12.3959 0 12.006 0C10.5123 0 9.08301 0.275183 7.76385 0.774046C8.70487 1.22627 10.1615 2.00464 11.7806 3.15471C12.333 2.67931 12.7496 2.24044 12.9771 1.93865Z" fill="url(#paint0_linear_512_309)"/>
<path d="M19.0571 8.78594C18.4657 8.85276 17.9669 8.94982 17.5403 9.08597C19.5796 12.6465 20.3747 17.1448 20.5692 20.4036C22.5895 18.3451 23.8726 15.5623 23.9939 12.4799C22.6018 10.7688 20.7577 8.59304 19.0571 8.78594Z" fill="url(#paint1_linear_512_309)"/>
<path d="M6.934 5.71263C8.36686 5.41448 9.71303 4.69331 10.7864 3.93207C8.54719 2.38987 6.67958 1.58951 6.30807 1.43717C3.985 2.69299 2.12604 4.69389 1.04455 7.1183C2.45026 6.55821 3.97268 6.27326 5.46799 5.99562C5.95174 5.90578 6.45178 5.81294 6.934 5.71263Z" fill="url(#paint2_linear_512_309)"/>
<path d="M15.228 6.06154C15.3559 6.19007 15.4834 6.32081 15.6101 6.45401C16.0775 6.94472 16.5017 7.48144 16.8906 8.04928C17.457 7.83542 18.1238 7.68377 18.922 7.59353C20.8028 7.38079 22.4751 8.87061 23.9104 10.5108C23.6026 8.02434 22.5362 5.77393 20.9473 3.99916C20.0799 4.10369 19.113 4.28078 18.1274 4.57486C17.4809 4.76796 16.4513 5.2926 15.228 6.06154Z" fill="url(#paint3_linear_512_309)"/>
<path d="M13.649 12.2587C14.1412 10.5916 14.7113 9.38989 15.8159 8.60985C15.4844 8.13397 15.1276 7.68734 14.7412 7.28161C14.5624 7.09387 14.3817 6.91256 14.2001 6.73444C9.76857 9.75084 3.69821 15.2919 3.14622 20.0928C4.98879 22.1087 7.51046 23.4913 10.3492 23.8835C11.3828 21.8256 12.3556 17.6422 12.9339 15.1542C13.2117 13.9591 13.4515 12.9273 13.649 12.2587Z" fill="url(#paint4_linear_512_309)"/>
<path d="M8.62452 9.61508C10.1697 8.19124 11.8014 6.91446 13.2939 5.8883C12.7964 5.44816 12.2974 5.04243 11.8075 4.67033C10.5679 5.60217 8.94487 6.51997 7.17821 6.8874C6.68347 6.99036 6.17685 7.08447 5.68707 7.1754C3.79992 7.52585 1.98838 7.86525 0.46493 8.71524C0.168243 9.75956 0.00598145 10.8606 0.00598145 12C0.00598145 14.5489 0.803201 16.9106 2.1583 18.854C3.03618 15.3781 6.04733 11.9899 8.62452 9.61508Z" fill="url(#paint5_linear_512_309)"/>
<path d="M14.3275 5.20293C15.7551 4.29279 16.9858 3.66348 17.7844 3.42512C18.5015 3.21096 19.2049 3.05499 19.8711 2.94123C18.3318 1.60361 16.4502 0.650268 14.373 0.23472C14.4191 1.07279 14.4391 1.99289 13.935 2.66138C13.6954 2.97884 13.2902 3.41422 12.7629 3.88657C13.2793 4.28852 13.8041 4.72685 14.3275 5.20293Z" fill="url(#paint6_linear_512_309)"/>
<path d="M14.7999 12.5984C14.6126 13.2331 14.3762 14.2493 14.1028 15.4258C13.2955 18.8996 12.5229 22.0079 11.6207 23.9902C11.7488 23.9942 11.8769 23.9999 12.006 23.9999C14.8026 23.9999 17.3735 23.0406 19.4138 21.4368C19.3332 18.0266 18.5157 13.203 16.4564 9.62224C15.6577 10.2159 15.2278 11.1497 14.7999 12.5984Z" fill="url(#paint7_linear_512_309)"/>
<defs>
<linearGradient id="paint0_linear_512_309" x1="0.00598145" y1="0" x2="18.2296" y2="27.7811" gradientUnits="userSpaceOnUse">
<stop stop-color="#A346EF"/>
<stop offset="1" stop-color="#6423FF"/>
</linearGradient>
<linearGradient id="paint1_linear_512_309" x1="0.00598145" y1="0" x2="18.2296" y2="27.7811" gradientUnits="userSpaceOnUse">
<stop stop-color="#A346EF"/>
<stop offset="1" stop-color="#6423FF"/>
</linearGradient>
<linearGradient id="paint2_linear_512_309" x1="0.00598145" y1="0" x2="18.2296" y2="27.7811" gradientUnits="userSpaceOnUse">
<stop stop-color="#A346EF"/>
<stop offset="1" stop-color="#6423FF"/>
</linearGradient>
<linearGradient id="paint3_linear_512_309" x1="0.00598145" y1="0" x2="18.2296" y2="27.7811" gradientUnits="userSpaceOnUse">
<stop stop-color="#A346EF"/>
<stop offset="1" stop-color="#6423FF"/>
</linearGradient>
<linearGradient id="paint4_linear_512_309" x1="0.00598145" y1="0" x2="18.2296" y2="27.7811" gradientUnits="userSpaceOnUse">
<stop stop-color="#A346EF"/>
<stop offset="1" stop-color="#6423FF"/>
</linearGradient>
<linearGradient id="paint5_linear_512_309" x1="0.00598145" y1="0" x2="18.2296" y2="27.7811" gradientUnits="userSpaceOnUse">
<stop stop-color="#A346EF"/>
<stop offset="1" stop-color="#6423FF"/>
</linearGradient>
<linearGradient id="paint6_linear_512_309" x1="0.00598145" y1="0" x2="18.2296" y2="27.7811" gradientUnits="userSpaceOnUse">
<stop stop-color="#A346EF"/>
<stop offset="1" stop-color="#6423FF"/>
</linearGradient>
<linearGradient id="paint7_linear_512_309" x1="0.00598145" y1="0" x2="18.2296" y2="27.7811" gradientUnits="userSpaceOnUse">
<stop stop-color="#A346EF"/>
<stop offset="1" stop-color="#6423FF"/>
</linearGradient>
</defs>
</svg>
