<svg width="103" height="34" viewBox="0 0 103 34" fill="none" xmlns="http://www.w3.org/2000/svg">
<path d="M45.4347 24H54.4759V21.7912H48.0696V9.45455H45.4347V24ZM56.4491 24H59.0202V13.0909H56.4491V24ZM57.7418 11.5426C58.5585 11.5426 59.2261 10.9176 59.2261 10.1506C59.2261 9.37642 58.5585 8.75142 57.7418 8.75142C56.9179 8.75142 56.2503 9.37642 56.2503 10.1506C56.2503 10.9176 56.9179 11.5426 57.7418 11.5426ZM70.0862 15.9744C69.731 14.1278 68.2538 12.9489 65.6969 12.9489C63.0691 12.9489 61.2793 14.2415 61.2864 16.2585C61.2793 17.8494 62.2594 18.9006 64.3546 19.3338L66.2154 19.7244C67.2168 19.9446 67.6856 20.3494 67.6856 20.9673C67.6856 21.7131 66.8759 22.2741 65.6543 22.2741C64.4754 22.2741 63.7083 21.7628 63.4881 20.7827L60.981 21.0241C61.3006 23.027 62.9839 24.2131 65.6614 24.2131C68.3887 24.2131 70.3134 22.7997 70.3205 20.733C70.3134 19.1776 69.312 18.2259 67.2523 17.7784L65.3915 17.3807C64.2836 17.1321 63.8433 16.7486 63.8504 16.1165C63.8433 15.3778 64.66 14.8665 65.7325 14.8665C66.9185 14.8665 67.5435 15.5128 67.7424 16.2301L70.0862 15.9744ZM77.688 13.0909H75.536V10.4773H72.965V13.0909H71.4167V15.0795H72.965V21.1449C72.9508 23.1974 74.4423 24.206 76.3741 24.1491C77.1056 24.1278 77.6099 23.9858 77.8869 23.8935L77.4536 21.8835C77.3116 21.919 77.0204 21.983 76.7008 21.983C76.0545 21.983 75.536 21.7557 75.536 20.7188V15.0795H77.688V13.0909ZM84.3506 24.2131C86.8932 24.2131 88.6403 22.9702 89.0949 21.0739L86.6943 20.804C86.3463 21.7273 85.494 22.2102 84.3861 22.2102C82.7241 22.2102 81.6233 21.1165 81.602 19.2486H89.2014V18.4602C89.2014 14.6321 86.9003 12.9489 84.2156 12.9489C81.0906 12.9489 79.0523 15.2429 79.0523 18.6094C79.0523 22.0327 81.0622 24.2131 84.3506 24.2131ZM81.6091 17.5156C81.6872 16.1236 82.717 14.9517 84.2511 14.9517C85.7284 14.9517 86.7227 16.0312 86.7369 17.5156H81.6091ZM95.935 24.2131C99.131 24.2131 101.162 21.9616 101.162 18.5881C101.162 15.2074 99.131 12.9489 95.935 12.9489C92.739 12.9489 90.7077 15.2074 90.7077 18.5881C90.7077 21.9616 92.739 24.2131 95.935 24.2131ZM95.9492 22.1534C94.1808 22.1534 93.3143 20.5767 93.3143 18.581C93.3143 16.5852 94.1808 14.9872 95.9492 14.9872C97.6893 14.9872 98.5558 16.5852 98.5558 18.581C98.5558 20.5767 97.6893 22.1534 95.9492 22.1534Z" fill="white"/>
<path d="M17 0L26.9923 3.24671L33.168 11.7467V22.2533L26.9923 30.7533L17 34L7.00765 30.7533L0.832039 22.2533V11.7467L7.00765 3.24671L17 0Z" fill="#B964FF"/>
<path d="M12.5904 24H21.9015V21.4645H15.6657V9.45454H12.5904V24Z" fill="white"/>
</svg>
