<svg width="40" height="40" viewBox="0 0 40 40" fill="none" xmlns="http://www.w3.org/2000/svg">
<g clip-path="url(#clip0_512_191)">
<path d="M19.715 19.2682C22.3621 19.2682 24.6542 18.3188 26.5271 16.4456C28.4 14.5728 29.3494 12.2812 29.3494 9.63379C29.3494 6.9873 28.4 4.69543 26.5268 2.82196C24.6536 0.949402 22.3618 0 19.715 0C17.0676 0 14.776 0.949402 12.9031 2.82227C11.0303 4.69513 10.0806 6.987 10.0806 9.63379C10.0806 12.2812 11.0303 14.5731 12.9034 16.4459C14.7766 18.3185 17.0685 19.2682 19.715 19.2682V19.2682Z" fill="#F48E19"/>
<path d="M36.5726 30.7582C36.5186 29.9788 36.4093 29.1286 36.2485 28.2308C36.0861 27.3262 35.8771 26.4711 35.6268 25.6896C35.3683 24.8818 35.0168 24.084 34.5822 23.3196C34.1312 22.5261 33.6014 21.8352 33.0069 21.2667C32.3853 20.6719 31.6241 20.1937 30.744 19.8448C29.8669 19.4979 28.895 19.3221 27.8552 19.3221C27.4469 19.3221 27.052 19.4896 26.2894 19.9861C25.82 20.2922 25.271 20.6462 24.6582 21.0378C24.1342 21.3716 23.4244 21.6844 22.5476 21.9677C21.6922 22.2444 20.8237 22.3848 19.9664 22.3848C19.1092 22.3848 18.241 22.2444 17.3846 21.9677C16.5088 21.6848 15.799 21.3719 15.2756 21.0381C14.6686 20.6502 14.1193 20.2962 13.6429 19.9858C12.8812 19.4893 12.486 19.3218 12.0776 19.3218C11.0376 19.3218 10.0659 19.4979 9.18915 19.8452C8.30963 20.1934 7.54822 20.6716 6.92596 21.267C6.33179 21.8358 5.8017 22.5264 5.35126 23.3196C4.91699 24.084 4.56543 24.8815 4.30664 25.6899C4.0567 26.4714 3.84766 27.3262 3.6853 28.2308C3.52448 29.1274 3.41522 29.9779 3.36121 30.7592C3.30811 31.5245 3.28125 32.3189 3.28125 33.1212C3.28125 35.2092 3.94501 36.8996 5.25391 38.1462C6.54663 39.3764 8.25714 40.0005 10.3372 40.0005H29.5975C31.6776 40.0005 33.3875 39.3767 34.6805 38.1462C35.9897 36.9005 36.6534 35.2098 36.6534 33.1209C36.6531 32.3149 36.626 31.52 36.5726 30.7582V30.7582Z" fill="#F48E19"/>
</g>
<defs>
<clipPath id="clip0_512_191">
<rect width="40" height="40.0002" fill="white"/>
</clipPath>
</defs>
</svg>
