<svg width="40" height="40" viewBox="0 0 40 40" fill="none" xmlns="http://www.w3.org/2000/svg">
<path d="M34.2258 21.353H31.1323C31.4476 22.2163 31.6199 23.148 31.6199 24.119V35.8104C31.6199 36.2152 31.5494 36.6038 31.4212 36.9652H36.5354C38.4458 36.9652 39.9999 35.411 39.9999 33.5007V27.1272C40 23.9433 37.4097 21.353 34.2258 21.353Z" fill="#59C3C9"/>
<path d="M8.38009 24.119C8.38009 23.1479 8.55236 22.2163 8.86767 21.353H5.77423C2.59032 21.353 0 23.9433 0 27.1273V33.5008C0 35.4111 1.55414 36.9653 3.46454 36.9653H8.57877C8.45056 36.6038 8.38009 36.2152 8.38009 35.8104V24.119V24.119Z" fill="#59C3C9"/>
<path d="M23.536 18.3452H16.4639C13.28 18.3452 10.6897 20.9355 10.6897 24.1194V35.8109C10.6897 36.4486 11.2067 36.9657 11.8445 36.9657H28.1553C28.7932 36.9657 29.3102 36.4487 29.3102 35.8109V24.1194C29.3102 20.9355 26.7199 18.3452 23.536 18.3452Z" fill="#59C3C9"/>
<path d="M20 3.03418C16.1709 3.03418 13.0558 6.14934 13.0558 9.97849C13.0558 12.5758 14.4893 14.8441 16.6063 16.0351C17.6105 16.5999 18.7681 16.9227 20 16.9227C21.2319 16.9227 22.3895 16.5999 23.3937 16.0351C25.5108 14.8441 26.9442 12.5757 26.9442 9.97849C26.9442 6.14942 23.8291 3.03418 20 3.03418Z" fill="#59C3C9"/>
<path d="M7.80598 9.50684C4.9423 9.50684 2.61261 11.8365 2.61261 14.7002C2.61261 17.5639 4.9423 19.8936 7.80598 19.8936C8.53239 19.8936 9.22411 19.7431 9.85247 19.4726C10.9389 19.0049 11.8347 18.1769 12.389 17.1398C12.778 16.4119 12.9993 15.5815 12.9993 14.7002C12.9993 11.8366 10.6697 9.50684 7.80598 9.50684Z" fill="#59C3C9"/>
<path d="M32.194 9.50684C29.3303 9.50684 27.0006 11.8365 27.0006 14.7002C27.0006 15.5816 27.2219 16.412 27.611 17.1398C28.1653 18.177 29.0611 19.005 30.1475 19.4726C30.7759 19.7431 31.4676 19.8936 32.194 19.8936C35.0577 19.8936 37.3874 17.5639 37.3874 14.7002C37.3874 11.8365 35.0577 9.50684 32.194 9.50684Z" fill="#59C3C9"/>
</svg>
