<svg width="40" height="40" viewBox="0 0 40 40" fill="none" xmlns="http://www.w3.org/2000/svg">
<g clip-path="url(#clip0_512_107)">
<path d="M12.1349 4.46436C8.10904 4.46436 4.8338 7.93701 4.8338 12.2054C4.8338 16.4739 8.10904 19.9465 12.1349 19.9465C16.1608 19.9465 19.4361 16.4739 19.4361 12.2054C19.4361 7.93701 16.1608 4.46436 12.1349 4.46436Z" fill="#EF4464"/>
<path d="M28.7341 5.57178C28.7177 5.57178 28.7009 5.57186 28.6844 5.57193C26.9949 5.58592 25.4168 6.29928 24.2409 7.58076C23.0855 8.83959 22.4573 10.5003 22.4718 12.2569C22.4863 14.0134 23.1419 15.6635 24.3177 16.9032C25.5029 18.1525 27.0728 18.8386 28.7436 18.8386C28.7604 18.8386 28.7772 18.8385 28.7941 18.8384C30.4836 18.8244 32.0617 18.111 33.2376 16.8296C34.393 15.5708 35.0212 13.9101 35.0067 12.1534C34.9766 8.51326 32.1677 5.57178 28.7341 5.57178Z" fill="#EF4464"/>
<path d="M29.0422 20.106H28.436C25.6125 20.106 23.0359 21.1794 21.0906 22.9388C21.5774 23.3122 22.0406 23.7192 22.4797 24.1583C23.775 25.4536 24.7922 26.963 25.5031 28.6442C26.1438 30.1583 26.5094 31.7536 26.5945 33.3966H40V31.063C40 25.0216 35.0844 20.106 29.0422 20.106Z" fill="#EF4464"/>
<path d="M24.2461 33.3968C24.025 29.8351 22.2195 26.7022 19.525 24.6944C17.5648 23.2335 15.1336 22.3687 12.5 22.3687H11.7703C5.26953 22.3687 0 27.6382 0 34.139V35.5358H24.2695V34.139C24.2695 33.8897 24.2617 33.6421 24.2461 33.3968Z" fill="#EF4464"/>
</g>
<defs>
<clipPath id="clip0_512_107">
<rect width="40" height="40" fill="white"/>
</clipPath>
</defs>
</svg>
